<svg xmlns="http://www.w3.org/2000/svg" width="880.332" height="635.6" viewBox="0 0 880.332 635.6">
  <path id="docker" d="M862.6,242.6c-19.8-13.8-65.3-18.9-100.8-12-4.2-34.4-23.1-64.5-56.2-91.2l-19-13.8-13.3,19.8A163.435,163.435,0,0,0,651,241.8a115.488,115.488,0,0,0,17.3,52.5,137.654,137.654,0,0,1-66.9,15.4H3.9l-1.6,6.9C-3.5,350.9-3.5,458.4,64,541c51.3,62.8,127.3,94.6,227.2,94.6,216.5,0,376.9-104.1,452-292.5,29.8.8,93.3,0,125.6-64.5.8-1.7,2.5-5.2,8.2-18l3.3-6.9-18.2-11.2.5.1ZM481.6,0H390.7V86h90.9Zm0,103.2H390.7v86h90.9Zm-107.5,0H283.2v86h90.9Zm-107.5,0H175.8v86h90.9ZM159.2,206.4H68.4v86h90.9Zm107.4,0H175.8v86h90.9Zm107.5,0H283.2v86h90.9Zm107.5,0H390.7v86h90.9Zm107.4,0H498.1v86H589Z" transform="translate(0.031)" fill="#2496ed"/>
</svg>
